<?xml version="1.0" standalone="no"?>
<!DOCTYPE svg PUBLIC "-//W3C//DTD SVG 20010904//EN"
 "http://www.w3.org/TR/2001/REC-SVG-20010904/DTD/svg10.dtd">
<svg version="1.0" xmlns="http://www.w3.org/2000/svg"
 width="460.000000pt" height="460.000000pt" viewBox="0 0 460.000000 460.000000"
 preserveAspectRatio="xMidYMid meet">
<metadata>
Created by potrace 1.14, written by Peter Selinger 2001-2017
</metadata>
<g transform="translate(0.000000,460.000000) scale(0.100000,-0.100000)"
fill="#000000" stroke="none">
<path d="M0 2300 l0 -2300 2300 0 2300 0 0 549 0 550 -22 4 -23 4 23 2 c38 2
24 17 -25 28 l-48 11 24 -19 c22 -18 22 -19 3 -19 -11 0 -25 7 -32 15 -7 8
-16 12 -21 9 -5 -3 -9 0 -9 5 0 6 5 11 11 11 5 0 7 5 3 11 -4 8 -9 7 -15 -2
-4 -8 -20 -15 -34 -16 -14 -1 -23 2 -20 8 4 5 2 9 -4 9 -5 0 -17 7 -26 16 -9
9 -19 13 -23 9 -4 -3 2 -13 13 -22 22 -16 25 -17 -48 3 -9 3 -17 1 -17 -5 0
-5 10 -13 22 -16 37 -11 87 -35 93 -45 9 -15 0 -12 -40 10 -20 11 -43 20 -51
20 -8 0 -22 7 -30 15 -18 17 -34 20 -34 5 0 -5 -7 -10 -15 -10 -8 0 -15 -5
-15 -11 0 -6 9 -9 20 -6 11 3 23 1 26 -4 3 -5 -9 -9 -26 -9 -18 0 -33 6 -36
15 -4 8 -16 15 -27 15 -20 0 -20 0 -1 14 19 14 19 14 -1 13 -13 -1 -20 4 -19
15 1 10 -6 20 -15 23 -22 7 -54 72 -38 79 7 2 4 5 -5 5 -12 1 -15 6 -11 17 4
11 1 15 -13 13 -10 -2 -25 1 -33 6 -9 5 -6 -6 8 -28 19 -31 20 -38 8 -43 -13
-5 -13 -8 4 -25 10 -10 25 -19 32 -19 7 0 22 -7 33 -15 18 -14 16 -15 -21 -9
-22 4 -44 7 -50 8 -5 0 -18 9 -29 19 -23 20 -26 20 -46 7 -11 -7 -9 -11 13
-19 15 -6 27 -15 27 -20 0 -5 2 -16 5 -24 4 -8 0 -14 -10 -14 -10 0 -13 6 -10
18 4 12 -2 20 -23 27 -32 11 -59 1 -47 -18 6 -9 2 -9 -16 0 l-24 13 20 -24
c11 -13 16 -21 11 -17 -11 9 -39 -19 -31 -32 7 -11 -39 -25 -54 -15 -6 3 -11
0 -11 -8 0 -8 11 -18 25 -21 14 -4 25 -13 25 -20 0 -8 3 -23 6 -33 4 -13 0
-11 -14 6 -18 23 -21 23 -36 9 -9 -9 -16 -23 -16 -30 0 -23 -16 -39 -33 -32
-9 3 -14 10 -11 15 3 5 -2 9 -11 9 -9 0 -14 4 -11 9 3 5 -3 11 -14 14 -11 3
-20 1 -20 -4 0 -5 3 -9 8 -9 4 0 7 -11 7 -25 0 -31 -12 -33 -18 -2 -3 14 -5 9
-6 -14 -1 -25 4 -39 14 -43 9 -3 15 0 15 10 0 8 5 12 11 8 8 -4 8 -9 0 -17 -6
-6 -11 -20 -11 -31 -1 -21 -1 -21 -16 -1 -8 11 -23 20 -32 20 -9 0 -23 13 -30
28 -8 16 -16 27 -18 24 -3 -2 7 -28 22 -57 19 -38 29 -49 35 -39 7 12 9 11 9
-1 0 -8 -5 -22 -10 -30 -7 -12 -13 -6 -27 27 -16 38 -22 43 -50 43 -17 0 -38
-3 -47 -6 -18 -7 -22 -49 -6 -59 10 -6 5 -42 -7 -55 -2 -3 -13 6 -23 20 -13
17 -20 20 -20 10 -1 -8 -7 -1 -15 15 -13 26 -14 27 -9 5 l5 -25 -25 28 c-14
15 -30 27 -36 27 -7 0 -9 8 -5 21 5 14 4 19 -4 15 -6 -4 -19 -3 -28 3 -17 9
-17 10 0 17 15 5 16 9 5 15 -7 5 -20 8 -28 8 -10 0 -8 -3 5 -9 17 -7 14 -9
-13 -9 -35 -1 -51 10 -71 47 -6 12 -18 22 -26 22 -8 0 -15 7 -15 15 0 32 49 0
51 -33 1 -10 4 -7 8 8 4 14 3 28 -3 32 -6 4 -8 9 -5 12 8 8 69 -26 63 -35 -3
-5 0 -9 5 -9 18 0 12 25 -11 44 -19 17 -28 18 -70 9 -28 -5 -48 -6 -48 -1 0 5
-9 7 -19 3 -11 -3 -22 -1 -26 5 -3 5 -17 10 -30 10 -13 0 -27 5 -30 10 -11 18
-43 11 -48 -11 -4 -17 -3 -19 6 -10 17 17 27 13 27 -8 0 -11 5 -23 11 -26 6
-4 8 -14 4 -22 -3 -9 2 -24 11 -34 9 -10 13 -23 9 -28 -3 -6 0 -11 8 -11 7 0
21 -8 30 -17 63 -68 128 -151 151 -193 11 -19 30 -43 43 -53 13 -10 21 -22 18
-27 -5 -8 23 -25 38 -22 10 3 9 -16 -2 -23 -5 -3 -12 -1 -16 5 -3 5 -11 10
-18 10 -19 0 27 -29 48 -30 11 -1 14 -4 7 -7 -7 -3 -26 0 -42 6 -18 6 -30 6
-30 0 0 -5 7 -9 15 -9 8 0 16 -6 17 -12 0 -7 2 -18 2 -24 1 -6 8 -19 16 -30
14 -17 13 -17 -17 1 -18 10 -30 22 -27 27 3 5 10 5 16 2 7 -4 8 -2 4 5 -4 6
-11 9 -16 6 -5 -3 -19 -1 -31 5 -13 7 -25 8 -30 3 -13 -13 27 -63 49 -63 9 0
25 -12 36 -26 l18 -26 -23 12 c-13 7 -32 19 -42 28 -9 8 -20 12 -24 9 -3 -4
-12 -2 -20 4 -10 9 -13 8 -13 -5 0 -10 -5 -14 -11 -11 -6 4 -8 13 -5 20 3 8
-7 19 -25 27 -33 14 -38 28 -11 29 10 0 12 3 5 6 -7 2 -13 9 -13 15 0 13 -26
38 -40 38 -6 0 -9 4 -6 8 3 5 -5 20 -17 33 -12 13 -22 28 -22 34 0 5 -8 11
-17 13 -23 4 -11 -39 12 -45 9 -3 23 -20 30 -39 8 -19 20 -34 27 -34 8 0 13
-12 13 -29 0 -16 3 -37 7 -47 4 -12 3 -15 -5 -10 -8 5 -10 1 -6 -11 4 -12 -2
-9 -18 10 -14 15 -32 27 -41 27 -9 0 -19 9 -22 21 -4 11 -9 19 -11 16 -9 -8
16 -58 26 -52 5 3 10 1 10 -4 0 -6 -6 -11 -12 -11 -9 0 -8 -3 2 -9 8 -6 18 -7
22 -5 4 3 5 -1 2 -9 -6 -16 22 -31 31 -17 4 6 14 10 23 10 13 -1 11 -5 -8 -16
-14 -8 -17 -13 -8 -10 9 2 19 -2 22 -10 3 -8 3 -14 0 -14 -10 0 -69 33 -88 49
-18 15 -18 15 -7 -6 6 -13 16 -23 20 -23 5 0 12 -7 15 -16 3 -8 2 -12 -4 -9
-17 11 -11 -17 8 -32 9 -8 11 -12 5 -8 -26 13 -12 -5 15 -19 25 -14 26 -15 5
-16 -13 0 -28 9 -35 20 -8 13 -24 20 -43 20 -23 0 -27 3 -15 10 13 8 13 10 -2
10 -28 0 -26 -23 6 -50 16 -14 33 -25 36 -25 3 0 28 -19 55 -43 l50 -43 -40
21 c-22 12 -44 27 -50 34 -5 6 -24 22 -41 34 -31 21 -32 21 -49 2 -9 -10 -14
-24 -9 -31 5 -8 3 -10 -5 -5 -8 5 -12 3 -10 -5 4 -34 -1 -40 -18 -23 -13 13
-14 19 -5 22 7 2 9 9 6 14 -4 7 -2 8 4 4 16 -9 15 7 0 22 -16 16 -31 15 -23 0
4 -7 -5 1 -20 17 l-27 30 21 -41 c11 -23 18 -44 15 -47 -3 -3 0 -16 7 -29 7
-12 12 -28 11 -35 -1 -6 2 -14 8 -18 18 -11 11 -22 -14 -22 -15 0 -36 11 -51
28 -14 16 -22 29 -19 29 4 0 1 7 -6 15 -7 8 -16 13 -20 10 -4 -3 -10 4 -13 14
-6 25 30 16 38 -10 4 -10 11 -19 16 -19 15 0 10 14 -14 40 -12 14 -30 41 -40
60 -9 19 -17 30 -17 23 0 -7 -7 -10 -15 -7 -8 4 -15 4 -15 1 0 -12 55 -124 71
-145 10 -13 16 -29 13 -37 -9 -24 -31 -6 -43 36 -19 64 -51 132 -58 125 -4 -3
-1 -12 5 -18 14 -14 16 -32 2 -23 -5 3 -19 25 -30 48 -31 65 -54 100 -65 98
-6 -1 -8 -10 -6 -19 6 -30 22 -54 34 -49 9 3 11 -9 8 -41 -3 -45 -4 -46 -20
-26 -9 11 -23 19 -31 17 -13 -4 -13 -3 -1 5 12 9 12 15 1 41 -18 45 -30 47
-23 5 5 -29 3 -36 -8 -32 -8 3 -15 10 -15 16 -1 7 -2 17 -3 23 0 5 -5 8 -10 4
-5 -3 -19 7 -30 21 -12 15 -21 22 -21 16 0 -6 11 -22 25 -36 14 -14 21 -27 16
-31 -5 -3 -11 0 -13 7 -7 20 -38 18 -38 -3 0 -11 -4 -17 -10 -14 -6 4 -10 -11
-11 -37 l-1 -43 -12 37 c-24 77 -32 40 -10 -46 4 -19 3 -27 -3 -23 -6 4 -14
23 -17 43 -6 29 -10 33 -22 24 -12 -10 -14 -8 -14 14 0 26 -13 35 -24 17 -4
-5 0 -12 6 -14 7 -3 2 -6 -13 -6 -14 -1 -30 4 -37 11 -16 16 -28 2 -13 -16 10
-11 7 -14 -13 -12 -13 0 -22 4 -20 8 3 4 -3 19 -12 33 -14 21 -19 23 -31 13
-9 -7 -19 -21 -23 -33 -9 -20 -9 -20 -10 0 0 11 -9 31 -20 45 l-20 25 9 -25
c11 -33 -12 -52 -45 -36 -30 14 -40 40 -36 94 3 39 5 42 33 42 16 0 29 5 29
10 0 6 13 10 29 10 18 0 31 6 35 16 4 9 9 14 12 11 3 -3 26 3 51 14 24 10 55
19 68 19 13 0 25 5 27 12 3 7 13 5 31 -7 15 -10 30 -15 34 -11 3 3 1 6 -6 6
-7 0 -9 5 -6 10 3 6 2 10 -2 10 -5 0 -9 9 -9 20 0 18 2 18 18 4 14 -14 21 -14
47 -3 26 12 28 14 13 26 -14 10 -14 12 -2 13 12 0 12 3 -2 16 -15 16 -20 15
-61 -9 -24 -15 -47 -24 -50 -20 -4 3 -13 0 -21 -6 -8 -7 -19 -10 -24 -7 -6 3
-31 7 -57 8 -40 1 -48 5 -57 27 -6 18 -6 27 2 29 7 3 7 9 -2 20 -11 13 -10 15
15 10 15 -3 27 -1 27 3 0 5 -5 9 -11 9 -6 0 -9 9 -6 20 3 11 1 17 -4 14 -5 -3
-12 3 -16 13 -3 10 -13 29 -22 42 -13 20 -16 21 -26 8 -14 -20 -55 -11 -55 12
-1 13 -3 13 -15 -3 -11 -14 -15 -16 -15 -5 0 8 46 41 102 74 117 68 158 101
189 152 20 32 22 48 21 134 -2 66 -9 120 -23 164 -23 77 -34 81 -19 9 10 -46
16 -151 12 -220 -2 -35 -25 -41 -57 -15 -11 9 -31 22 -44 30 -28 15 -180 31
-187 19 -3 -4 -16 -5 -30 -2 -14 4 -31 1 -39 -6 -10 -8 -15 -9 -15 -2 0 6 -7
9 -15 6 -11 -4 -15 1 -15 17 -1 21 -2 20 -15 -8 -8 -18 -19 -33 -26 -33 -8 0
-8 4 1 15 7 9 10 18 6 22 -3 3 -6 2 -6 -4 0 -19 -60 -24 -91 -8 -16 9 -29 13
-29 10 0 -3 -10 0 -22 6 -13 7 -40 12 -61 10 -25 -1 -36 2 -32 9 7 11 -8 14
-18 4 -4 -4 -33 -8 -66 -8 -33 -1 -66 -8 -75 -15 -9 -8 -18 -12 -21 -10 -12
12 -6 121 9 166 28 84 14 97 -18 18 -38 -91 -43 -223 -11 -269 11 -16 32 -47
46 -70 14 -22 32 -41 40 -41 19 0 23 -31 5 -38 -9 -4 -18 -2 -20 2 -7 10 -54
2 -62 -10 -3 -5 0 -8 8 -7 8 2 12 -4 10 -16 -3 -18 -2 -18 13 -2 17 17 60 23
50 6 -3 -5 -12 -7 -20 -3 -8 3 -15 0 -15 -7 0 -16 -65 -80 -81 -80 -10 0 -11
-2 -2 -8 14 -9 -11 -43 -46 -61 -25 -14 -44 -5 -21 9 8 5 11 12 7 16 -4 4 -17
-1 -28 -12 -22 -19 -22 -19 -14 4 6 21 5 23 -16 17 -16 -6 -26 -2 -38 14 -10
13 -29 22 -49 24 -24 1 -32 7 -32 21 0 12 -5 16 -15 13 -18 -8 -32 13 -16 23
8 5 1 14 -23 28 -20 12 -36 29 -36 38 0 11 -6 15 -20 11 -28 -7 -33 7 -10 28
20 18 20 18 -2 29 -19 9 -23 21 -25 61 -2 45 -7 98 -11 118 -1 4 -10 7 -19 7
-15 0 -14 2 3 14 20 15 17 26 -9 30 -8 1 -21 7 -28 13 -8 6 -29 14 -46 18 -18
3 -33 11 -33 16 0 12 37 12 42 0 5 -15 83 3 80 19 -2 7 3 17 10 21 10 7 8 9
-5 9 -10 0 -15 5 -12 10 4 6 1 17 -5 25 -10 12 -9 15 9 15 25 0 26 8 7 35 -12
18 -11 22 20 45 24 18 32 31 29 48 -2 12 1 22 6 22 16 0 10 18 -8 23 -13 3
-12 5 5 6 13 0 21 5 17 10 -3 5 5 17 17 25 l22 16 -22 0 c-13 0 -20 4 -17 10
4 6 12 7 18 4 8 -5 8 -3 0 7 -19 20 -16 27 12 21 30 -5 35 17 5 25 -32 8 -23
26 10 21 21 -3 29 -1 26 7 -2 7 12 18 32 26 58 23 75 33 80 49 4 12 2 13 -9 3
-7 -7 -24 -13 -39 -13 -23 1 -22 2 12 18 42 20 78 50 78 66 0 6 -5 5 -12 -2
-7 -7 -16 -12 -20 -12 -4 0 12 20 37 44 25 25 45 50 45 55 0 6 4 11 9 11 5 0
16 14 25 30 10 21 11 30 3 30 -7 0 1 11 17 23 18 15 26 28 22 36 -5 8 0 18 13
28 12 8 21 20 20 26 -3 26 1 48 9 43 13 -8 11 28 -2 36 -8 5 -7 8 2 8 10 0 10
5 1 21 -8 15 -8 19 0 15 7 -5 11 2 11 18 0 14 -6 26 -12 26 -10 0 -10 2 -1 8
12 8 12 33 -3 140 -3 23 -9 42 -15 42 -5 0 -9 -6 -9 -12 0 -8 -3 -9 -8 -3 -4
6 -20 17 -37 25 -16 8 -37 20 -45 26 -39 32 -123 65 -173 68 -30 2 -58 6 -63
8 -5 3 -20 1 -34 -4 -14 -6 -38 -12 -55 -14 -42 -6 -85 -27 -85 -41 0 -7 -8
-13 -17 -13 -10 0 -34 -14 -53 -30 -19 -16 -31 -30 -27 -30 5 0 1 -7 -8 -16
-13 -14 -14 -19 -3 -25 9 -6 4 -9 -14 -9 -17 0 -28 -5 -28 -14 0 -7 -12 -21
-26 -31 -20 -13 -23 -19 -13 -31 9 -11 8 -14 -4 -14 -10 0 -14 -6 -11 -15 4
-10 0 -15 -12 -15 -14 0 -15 -3 -6 -12 22 -22 14 -39 -15 -32 -27 6 -27 6 -8
-10 19 -16 19 -17 -12 -11 -42 8 -42 0 0 -25 l32 -20 -32 6 c-34 7 -42 -3 -21
-24 9 -9 9 -12 -2 -12 -11 -1 -9 -5 5 -17 20 -15 20 -15 -2 -10 -30 7 -39 -9
-10 -17 17 -5 19 -8 8 -15 -8 -5 -20 -7 -28 -4 -7 3 -13 -1 -13 -10 0 -9 10
-19 22 -23 l23 -7 -23 -8 c-24 -9 -30 -34 -10 -42 7 -3 -3 -6 -22 -7 l-35 -2
34 -12 c32 -11 34 -14 35 -65 2 -39 -2 -55 -12 -59 -12 -4 -10 -7 7 -14 12 -4
20 -12 16 -17 -3 -6 13 -16 35 -22 28 -8 37 -15 28 -21 -7 -4 -8 -8 -3 -8 6 0
-1 -7 -15 -15 -14 -8 -20 -15 -15 -16 16 -3 38 -6 58 -8 15 -1 14 -5 -10 -27
l-28 -25 30 6 29 6 -19 -22 -20 -22 25 8 c14 4 31 10 38 13 10 3 13 -2 10 -19
-2 -17 -10 -25 -28 -27 -32 -5 -51 -22 -25 -22 16 0 17 -2 5 -10 -8 -5 -11
-12 -7 -16 4 -4 16 2 27 14 22 23 50 29 50 12 0 -6 -7 -13 -15 -16 -8 -4 -13
-10 -10 -14 3 -5 -4 -11 -15 -15 -20 -7 -28 -25 -10 -25 6 0 10 5 10 10 0 6
10 10 21 10 18 0 19 -2 9 -15 -7 -8 -23 -15 -36 -15 -13 0 -24 -4 -24 -10 0
-5 13 -7 31 -3 l31 6 -26 -42 c-17 -26 -22 -41 -14 -41 7 -1 -9 -9 -37 -19
-27 -10 -58 -21 -67 -26 -12 -4 -18 -3 -18 5 0 7 -5 6 -15 -4 -21 -21 -19 -26
13 -27 23 -2 24 -2 4 -6 -12 -2 -20 -9 -16 -14 3 -5 2 -8 -3 -7 -15 4 -92 -46
-102 -67 -5 -11 -10 -14 -10 -7 -1 17 -19 15 -47 -7 -24 -19 -23 -34 2 -24 19
7 18 0 -12 -63 -17 -36 -31 -54 -39 -50 -20 7 -36 -18 -39 -58 -3 -28 1 -36
13 -36 12 -1 10 -5 -8 -21 -26 -22 -41 -18 -21 6 10 12 10 15 -4 15 -9 0 -19
-8 -23 -17 -9 -27 -44 -75 -50 -69 -3 2 7 24 21 49 16 26 24 51 20 61 -4 10 1
25 11 36 21 23 9 26 -19 5 -26 -20 -50 -19 -42 0 3 8 1 15 -5 15 -6 0 -6 8 2
21 9 17 8 20 -3 16 -7 -2 -12 -10 -11 -16 3 -13 -13 -15 -21 -2 -3 5 1 14 9
21 8 7 15 18 15 25 0 14 29 29 39 20 3 -3 -1 -10 -9 -15 -13 -8 -13 -10 1 -10
19 0 52 34 42 43 -3 4 -1 7 5 7 7 0 12 7 12 15 0 8 6 15 13 15 6 0 29 20 51
45 21 25 45 45 53 45 10 0 7 -7 -9 -24 -37 -38 -102 -124 -110 -146 -12 -34 5
-22 34 23 48 74 52 80 91 115 21 19 36 37 34 39 -11 10 -50 11 -83 1 -28 -7
-34 -12 -23 -19 11 -7 11 -9 1 -9 -7 0 -10 -5 -7 -10 4 -6 1 -9 -6 -8 -7 2
-13 -3 -14 -11 0 -8 -6 -16 -14 -19 -8 -3 -11 0 -7 7 5 7 1 9 -8 5 -9 -3 -16
-3 -16 0 0 4 11 11 25 16 14 5 25 15 25 21 0 8 -4 8 -15 -1 -9 -7 -18 -10 -22
-6 -4 3 2 13 13 21 10 8 14 15 8 15 -18 0 -37 -28 -28 -41 5 -9 2 -10 -12 -5
-10 4 -15 4 -12 0 4 -3 1 -13 -7 -21 -19 -19 -19 -33 0 -33 8 0 15 5 15 10 0
6 5 10 11 10 23 0 2 -33 -36 -55 -53 -29 -108 -82 -100 -95 4 -7 -2 -7 -19 0
-22 8 -24 7 -21 -11 2 -11 0 -17 -6 -14 -5 4 -18 0 -30 -8 -13 -10 -17 -17
-10 -22 6 -3 9 -11 6 -16 -4 -5 7 -6 24 -3 16 3 37 1 48 -5 16 -11 16 -11 -5
-6 -13 4 -22 2 -22 -4 0 -6 6 -11 13 -11 6 -1 0 -8 -15 -16 -16 -8 -28 -21
-28 -29 0 -8 -7 -15 -15 -15 -8 0 -15 -5 -15 -11 0 -5 -15 -16 -34 -24 -19 -8
-36 -19 -38 -23 -4 -13 -118 -21 -125 -9 -3 6 -1 7 5 3 6 -3 13 -2 17 4 3 5
15 10 26 10 12 0 17 4 14 11 -4 6 -14 8 -22 5 -15 -6 -43 15 -43 31 0 5 13 22
30 38 16 16 28 31 25 33 -2 3 1 14 6 25 8 15 8 22 -2 28 -11 7 -7 16 19 39 18
17 39 30 48 30 8 0 13 4 9 9 -3 5 -1 12 4 15 5 3 7 15 4 26 -3 13 1 22 12 26
13 5 14 9 4 15 -10 6 -3 13 24 24 20 8 37 19 37 23 0 4 14 15 30 24 17 9 30
23 30 30 -1 8 -6 5 -15 -6 -8 -11 -15 -15 -15 -9 0 6 -10 14 -23 18 -12 3 -17
9 -10 11 8 4 7 11 -5 24 -36 39 -43 51 -38 59 3 4 -3 16 -14 26 -16 14 -18 20
-8 27 10 6 9 12 -6 23 -16 12 -17 17 -6 30 12 14 11 18 -1 26 -8 5 -17 9 -21
9 -4 0 -15 11 -23 24 -15 22 -14 27 4 60 12 20 16 38 11 41 -6 4 -10 17 -10
31 0 13 -4 24 -10 24 -6 0 -6 9 -1 23 8 22 6 99 -3 124 -4 8 5 18 22 24 l27
11 -34 12 c-41 15 -51 56 -20 87 25 25 24 37 -3 41 -24 3 -27 18 -31 156 -1
46 2 86 6 89 5 3 6 16 2 30 -3 14 -2 30 3 36 5 7 13 44 17 82 4 39 9 86 12
105 2 19 6 46 7 59 2 13 11 30 21 37 12 9 16 22 13 43 -3 23 0 32 13 36 16 5
17 9 6 26 -10 17 -9 22 5 30 9 5 15 16 12 23 -3 8 2 28 11 46 9 17 18 47 21
67 2 21 13 42 24 50 25 17 62 95 50 106 -9 10 13 59 35 77 8 7 15 17 15 22 0
22 41 96 56 102 11 4 14 13 10 30 -4 18 3 33 29 62 19 21 35 42 35 47 0 5 11
21 25 36 54 56 63 67 69 88 5 15 21 27 46 34 26 8 37 16 33 25 -3 8 1 14 9 14
9 0 13 11 12 35 -1 25 2 35 13 35 9 0 13 6 9 15 -3 9 0 15 8 15 7 0 19 7 26
15 7 8 24 15 39 15 18 0 22 3 13 9 -10 6 -6 10 15 16 15 5 33 7 38 6 6 0 1 6
-9 14 -11 8 -17 16 -13 16 4 1 12 3 17 4 6 1 19 3 31 4 11 0 17 6 14 11 -3 6
2 10 12 11 16 0 16 1 -2 9 -16 7 -17 9 -3 9 13 1 63 23 88 39 3 2 -3 8 -13 13
-16 9 -16 12 -2 26 11 11 19 12 28 5 16 -13 63 8 60 26 -2 7 3 12 11 12 8 0
25 13 39 29 14 17 28 27 31 24 4 -4 11 7 18 23 11 31 47 54 83 54 12 0 27 10
34 23 10 19 75 57 97 57 4 0 18 12 31 26 18 19 30 24 48 20 13 -3 27 -2 30 4
12 20 86 48 115 45 19 -3 33 1 38 11 5 10 29 16 73 18 36 2 79 11 96 20 17 8
33 13 35 10 3 -3 21 4 39 14 42 25 95 29 199 17 57 -6 129 -12 255 -20 67 -5
112 -13 137 -26 21 -10 42 -19 47 -19 5 0 22 -5 38 -12 15 -6 32 -10 38 -9 16
4 119 -31 133 -46 7 -7 24 -13 38 -13 14 0 27 -6 30 -14 3 -8 19 -18 35 -21
16 -4 29 -11 29 -16 0 -6 8 -8 19 -4 12 3 30 -3 47 -17 40 -31 63 -45 106 -64
21 -9 40 -24 43 -34 3 -10 15 -20 26 -23 17 -4 20 -12 17 -39 -2 -24 1 -33 12
-34 23 0 50 -15 50 -26 0 -5 7 -16 15 -24 8 -9 15 -29 15 -45 0 -16 5 -29 10
-29 6 0 10 -7 10 -15 0 -17 25 -20 35 -5 3 6 11 10 17 10 5 0 0 -9 -13 -21
l-24 -20 30 6 c29 6 29 6 10 -9 -20 -15 -20 -15 -1 -16 20 0 20 0 0 -15 -18
-15 -16 -16 24 -13 49 4 52 1 15 -13 -26 -10 -27 -12 -11 -23 10 -7 15 -15 13
-18 -8 -8 79 -3 93 6 16 9 16 -6 0 -23 -11 -10 -9 -11 6 -5 13 5 17 4 12 -4
-4 -7 -19 -12 -34 -13 -21 -1 -18 -3 16 -13 24 -6 40 -14 36 -18 -3 -4 12 -10
35 -14 25 -4 38 -10 30 -14 -8 -5 -5 -10 10 -15 11 -3 21 -11 21 -16 0 -5 8
-9 18 -10 11 -1 8 -4 -8 -8 -23 -7 -21 -8 18 -15 41 -8 52 -18 32 -31 -6 -4
-8 -11 -4 -16 3 -5 10 -7 15 -4 5 4 9 1 9 -4 0 -6 -6 -11 -12 -12 -7 0 2 -5
20 -10 23 -7 32 -15 28 -24 -3 -8 -1 -17 5 -20 5 -4 7 -11 4 -16 -4 -5 1 -9 9
-9 9 0 15 -3 14 -7 -5 -25 16 -41 48 -38 30 3 34 0 34 -21 0 -13 5 -24 11 -24
5 0 8 -4 5 -9 -3 -4 16 -20 42 -34 51 -28 70 -53 76 -102 8 -61 20 -99 48
-157 15 -32 28 -63 28 -68 0 -6 16 -42 35 -80 39 -77 55 -133 60 -203 1 -26 5
-51 9 -54 3 -4 6 -16 6 -28 0 -11 5 -26 11 -32 14 -14 19 -75 7 -89 -5 -7 -7
-28 -5 -48 2 -20 1 -38 -3 -41 -11 -7 3 -209 17 -245 4 -8 8 -28 9 -45 5 -47
31 -178 39 -200 5 -11 30 -53 57 -93 26 -40 48 -77 48 -83 0 -6 10 -25 23 -42
12 -18 30 -48 39 -67 31 -61 65 -114 77 -118 6 -2 11 -10 11 -19 0 -13 54 -73
66 -73 2 0 4 734 4 1630 l0 1630 -2300 0 -2300 0 0 -2300z m3607 1304 c-3 -3
-12 -4 -19 -1 -8 3 -5 6 6 6 11 1 17 -2 13 -5z m160 -100 c-3 -3 -12 -4 -19
-1 -8 3 -5 6 6 6 11 1 17 -2 13 -5z m-2187 -1374 c0 -5 -4 -10 -10 -10 -5 0
-10 5 -10 10 0 6 5 10 10 10 6 0 10 -4 10 -10z m-303 -636 c-3 -3 -12 -4 -19
-1 -8 3 -5 6 6 6 11 1 17 -2 13 -5z m-197 -84 c0 -5 -5 -10 -12 -10 -6 0 -9
-3 -5 -6 3 -4 14 -3 24 1 10 5 29 9 43 11 16 2 10 -2 -15 -12 -42 -15 -93 -5
-80 16 8 13 45 13 45 0z m-101 -71 l-24 -22 35 6 c35 7 35 7 13 -12 -15 -12
-18 -22 -12 -32 8 -12 10 -12 19 1 10 16 60 24 60 9 0 -5 -9 -9 -21 -9 -11 0
-17 -4 -14 -10 3 -5 21 -10 38 -10 l32 0 -30 -16 c-16 -8 -41 -13 -54 -11 -29
6 -121 -28 -149 -54 -15 -14 -26 -16 -48 -9 -26 7 -17 15 13 11 6 -1 22 13 34
31 13 18 31 40 41 49 25 23 22 29 -6 16 -13 -7 -22 -16 -19 -21 4 -5 0 -6 -7
-1 -9 6 -2 17 26 41 21 19 33 34 26 34 -27 0 -10 19 21 23 17 2 36 5 41 5 5 1
-2 -8 -15 -19z m151 -5 c0 -2 -7 -4 -15 -4 -8 0 -15 4 -15 10 0 5 7 7 15 4 8
-4 15 -8 15 -10z m33 -31 c-7 -2 -21 -2 -30 0 -10 3 -4 5 12 5 17 0 24 -2 18
-5z m-283 -62 c0 -4 -19 -18 -42 -31 -24 -13 -45 -27 -48 -30 -11 -15 -50 -31
-50 -20 0 5 5 10 10 10 6 0 10 7 10 15 0 8 6 15 13 15 17 0 78 45 71 53 -3 3
3 3 15 0 12 -3 21 -8 21 -12z m3130 -81 c0 -6 -9 -5 -20 2 -11 7 -20 16 -20
21 0 4 9 3 20 -3 11 -6 20 -15 20 -20z m-2893 14 c-3 -3 -12 -4 -19 -1 -8 3
-5 6 6 6 11 1 17 -2 13 -5z m-277 -23 c0 -5 -7 -12 -16 -15 -14 -5 -15 -4 -4
9 14 17 20 19 20 6z m-70 -15 c0 -3 -4 -8 -10 -11 -5 -3 -10 -1 -10 4 0 6 5
11 10 11 6 0 10 -2 10 -4z m290 0 c0 -3 -4 -8 -10 -11 -5 -3 -10 -1 -10 4 0 6
5 11 10 11 6 0 10 -2 10 -4z m142 -18 c-9 -9 -15 -9 -24 0 -9 9 -7 12 12 12
19 0 21 -3 12 -12z m-459 -33 c-3 -9 -8 -14 -10 -11 -3 3 -2 9 2 15 9 16 15
13 8 -4z m-81 -37 c-15 -15 -24 -6 -16 16 5 12 10 14 17 7 8 -8 8 -14 -1 -23z
m213 23 c-15 -13 -75 -31 -75 -22 0 4 15 13 33 19 42 13 53 14 42 3z m-370
-23 c-4 -13 -12 -27 -18 -33 -7 -7 -8 -4 -3 8 3 10 6 25 6 33 0 8 5 14 11 14
6 0 8 -9 4 -22z m585 13 c0 -8 -54 -41 -67 -41 -8 0 21 26 42 38 25 14 25 14
25 3z m2827 -23 c-3 -8 -6 -5 -6 6 -1 11 2 17 5 13 3 -3 4 -12 1 -19z m62 -42
c-3 -3 -11 5 -18 17 -13 21 -12 21 5 5 10 -10 16 -20 13 -22z m39 9 c-3 -3 -9
2 -12 12 -6 14 -5 15 5 6 7 -7 10 -15 7 -18z m-3477 -8 c-10 -9 -11 -8 -5 6 3
10 9 15 12 12 3 -3 0 -11 -7 -18z m170 -4 c-12 -20 -14 -14 -5 12 4 9 9 14 11
11 3 -2 0 -13 -6 -23z m-201 -2 c0 -5 -7 -12 -16 -15 -14 -5 -15 -4 -4 9 14
17 20 19 20 6z m3378 -27 c4 2 8 -7 8 -21 2 -23 0 -22 -22 11 -13 19 -24 38
-24 43 0 4 7 -3 16 -15 8 -12 18 -20 22 -18z m-3122 -21 c-10 -10 -19 5 -10
18 6 11 8 11 12 0 2 -7 1 -15 -2 -18z m-60 -38 c-1 -26 -4 -34 -15 -30 -8 3
-26 -2 -40 -12 -23 -15 -25 -15 -13 0 8 9 22 19 33 22 12 4 19 16 19 31 0 13
4 24 8 24 5 0 8 -16 8 -35z m2519 25 c3 -5 1 -10 -4 -10 -6 0 -11 5 -11 10 0
6 2 10 4 10 3 0 8 -4 11 -10z m-1995 -10 c0 -5 -5 -10 -11 -10 -5 0 -7 5 -4
10 3 6 8 10 11 10 2 0 4 -4 4 -10z m-820 -14 c0 -8 -8 -17 -17 -19 -14 -4 -12
-5 5 -6 27 -1 29 -17 2 -24 -11 -3 -20 -12 -20 -20 0 -19 -72 -38 -108 -27
l-27 8 27 1 c20 1 26 5 22 16 -6 15 5 19 51 16 19 -1 19 0 1 7 -16 7 -13 11
20 34 47 32 44 31 44 14z m1406 -27 c19 -22 19 -22 -3 -10 -13 6 -23 16 -23
21 0 15 5 12 26 -11z m1790 -4 c-3 -9 0 -15 9 -15 8 0 34 -18 56 -40 23 -22
36 -40 28 -40 -8 0 -5 -6 7 -15 10 -8 14 -15 8 -15 -6 0 -17 7 -24 15 -7 8 -9
15 -4 15 5 0 -5 12 -21 28 -16 15 -33 26 -38 24 -5 -1 -6 2 -2 8 3 5 -3 10
-14 10 -12 0 -21 2 -21 4 0 10 13 36 17 36 3 0 3 -7 -1 -15z m-2876 -21 c0
-14 -4 -23 -9 -20 -5 3 -7 15 -4 26 7 28 13 25 13 -6z m480 -3 c0 -18 -6 -31
-16 -35 -24 -9 -32 3 -11 18 9 7 17 21 17 30 0 9 2 16 5 16 3 0 5 -13 5 -29z
m-523 -13 c-3 -8 -6 -5 -6 6 -1 11 2 17 5 13 3 -3 4 -12 1 -19z m-47 -8 c-8
-5 -19 -10 -25 -10 -5 0 -3 5 5 10 8 5 20 10 25 10 6 0 3 -5 -5 -10z m2685
-28 c-3 -3 -11 0 -18 7 -9 10 -8 11 6 5 10 -3 15 -9 12 -12z m430 8 c3 -6 -1
-7 -9 -4 -18 7 -21 14 -7 14 6 0 13 -4 16 -10z m-104 -34 c7 -23 5 -25 -7 -15
-8 6 -12 14 -9 17 3 3 -1 12 -8 20 -10 12 -9 14 2 10 8 -2 18 -17 22 -32z
m-2413 17 c-10 -2 -26 -2 -35 0 -10 3 -2 5 17 5 19 0 27 -2 18 -5z m-743 -13
c-3 -5 -12 -10 -18 -10 -7 0 -6 4 3 10 19 12 23 12 15 0z m815 4 c0 -4 -8 -13
-17 -21 -10 -8 -12 -12 -5 -8 7 4 12 0 12 -9 0 -9 -4 -16 -10 -16 -5 0 -10 -6
-10 -14 0 -20 -24 -36 -39 -27 -11 7 -10 13 1 32 7 13 18 27 23 31 6 5 4 8 -5
8 -11 1 -10 4 4 15 20 15 46 20 46 9z m2355 -82 c-6 -6 -55 46 -55 59 0 8 14
-2 29 -21 16 -19 28 -36 26 -38z m78 41 c-10 -3 -9 -8 2 -20 24 -23 17 -35
-10 -17 -14 9 -25 20 -25 24 0 9 18 18 35 18 6 0 4 -2 -2 -5z m-1363 -29 c0
-8 -4 -12 -10 -9 -5 3 -10 13 -10 21 0 8 5 12 10 9 6 -3 10 -13 10 -21z m1015
6 c3 -6 -1 -7 -9 -4 -18 7 -21 14 -7 14 6 0 13 -4 16 -10z m-2085 -10 c0 -5
-5 -10 -11 -10 -5 0 -7 5 -4 10 3 6 8 10 11 10 2 0 4 -4 4 -10z m360 3 c0 -5
-7 -17 -15 -27 -15 -20 -15 -20 -15 0 0 12 3 24 7 27 9 9 23 9 23 0z m2082
-55 c-7 -7 -17 -6 -32 5 -15 10 -18 16 -8 20 20 7 52 -13 40 -25z m-1375 -10
c-3 -8 -6 -5 -6 6 -1 11 2 17 5 13 3 -3 4 -12 1 -19z m-1050 -43 c-7 -17 -27
-21 -27 -4 0 5 5 7 10 4 6 -3 10 2 10 11 0 10 3 15 6 11 4 -3 4 -13 1 -22z
m1058 -5 c3 -5 1 -10 -4 -10 -6 0 -11 5 -11 10 0 6 2 10 4 10 3 0 8 -4 11 -10z
m-1048 -102 c-3 -8 -6 -5 -6 6 -1 11 2 17 5 13 3 -3 4 -12 1 -19z m2164 -55
c13 -16 12 -17 -3 -4 -17 13 -22 21 -14 21 2 0 10 -8 17 -17z m-2051 -11 c0
-5 -7 -17 -15 -28 -14 -18 -14 -17 -4 9 12 27 19 34 19 19z m797 -44 c-3 -8
-6 -5 -6 6 -1 11 2 17 5 13 3 -3 4 -12 1 -19z m448 -57 c3 -5 1 -12 -5 -16 -5
-3 -10 1 -10 9 0 18 6 21 15 7z m466 -38 c12 -14 12 -16 -1 -9 -8 4 7 -13 35
-38 27 -24 46 -48 42 -52 -4 -4 -7 -3 -7 3 0 6 -18 23 -40 38 -35 24 -42 26
-57 14 -16 -13 -17 -12 -5 3 9 11 10 18 2 23 -8 5 -8 11 1 21 14 17 14 18 30
-3z m114 -13 c10 -11 16 -20 13 -20 -3 0 -13 9 -23 20 -10 11 -16 20 -13 20 3
0 13 -9 23 -20z m-705 -35 c0 -5 -5 -3 -10 5 -5 8 -10 20 -10 25 0 6 5 3 10
-5 5 -8 10 -19 10 -25z m117 3 c-3 -8 -6 -5 -6 6 -1 11 2 17 5 13 3 -3 4 -12
1 -19z m-22 -18 c3 -5 1 -10 -4 -10 -6 0 -11 5 -11 10 0 6 2 10 4 10 3 0 8 -4
11 -10z m265 -30 c0 -13 -1 -13 -10 0 -5 8 -10 22 -10 30 0 13 1 13 10 0 5 -8
10 -22 10 -30z m-396 4 c3 -8 2 -12 -4 -9 -6 3 -10 10 -10 16 0 14 7 11 14 -7z
m163 -56 c-2 -13 -4 -5 -4 17 -1 22 1 32 4 23 2 -10 2 -28 0 -40z m333 -13
c14 -19 14 -19 -2 -6 -10 7 -18 18 -18 24 0 6 1 8 3 6 1 -2 9 -13 17 -24z
m-262 -40 c-3 -3 -9 2 -12 12 -6 14 -5 15 5 6 7 -7 10 -15 7 -18z m-2081 -21
c-3 -3 -12 -4 -19 -1 -8 3 -5 6 6 6 11 1 17 -2 13 -5z"/>
<path d="M3727 669 c7 -7 15 -10 18 -7 3 3 -2 9 -12 12 -14 6 -15 5 -6 -5z"/>
<path d="M2945 2568 c-15 -22 -17 -22 -29 -5 -10 13 -15 15 -18 5 -4 -11 -8
-10 -21 1 -14 11 -21 11 -42 -3 -29 -19 -49 -21 -39 -3 4 6 -2 3 -14 -7 -12
-11 -22 -16 -22 -13 0 3 -13 1 -30 -4 -16 -6 -28 -15 -25 -19 3 -4 -2 -11 -11
-14 -9 -4 -14 -9 -11 -12 11 -11 -45 -74 -64 -74 -17 0 -24 -16 -20 -42 0 -4
-8 -28 -20 -54 -11 -26 -18 -53 -15 -60 3 -7 0 -15 -7 -18 -7 -2 1 -5 16 -5
31 -1 28 -21 -3 -21 -17 0 -18 -4 -10 -25 7 -19 6 -25 -4 -25 -17 0 -15 -34 4
-58 36 -44 41 -52 46 -78 3 -16 8 -31 12 -34 14 -10 62 -86 62 -98 0 -7 5 -12
10 -12 6 0 16 -12 23 -27 6 -15 26 -41 43 -58 16 -17 33 -38 37 -47 3 -10 21
-21 39 -27 18 -5 27 -10 20 -10 -7 -1 -10 -5 -7 -11 3 -5 -2 -10 -12 -11 -32
-1 39 -28 76 -29 l34 0 -23 -25 c-13 -14 -22 -26 -19 -28 15 -12 88 -25 109
-20 24 5 25 5 5 -10 -20 -16 -20 -16 5 -18 14 -1 41 -1 61 0 23 2 40 -3 50
-15 13 -16 11 -17 -36 -11 -45 6 -48 5 -31 -8 18 -14 64 -13 134 1 20 4 22 7
11 20 -7 8 -22 14 -33 13 -50 -3 -57 0 -46 21 10 19 13 19 33 5 25 -17 37 -19
37 -6 0 5 -9 13 -20 16 -36 11 -22 26 18 19 32 -6 35 -5 25 8 -11 12 -7 14 22
12 27 -3 33 0 28 13 -5 12 -1 14 15 8 13 -4 22 -2 22 4 0 6 -6 11 -12 11 -10
0 -10 2 0 9 8 4 14 12 15 17 1 5 8 8 15 8 6 -1 12 4 12 12 0 8 8 14 17 14 13
0 14 3 5 12 -9 9 -8 16 5 30 13 14 14 23 7 35 -8 13 -6 21 8 35 21 21 24 64 6
71 -10 3 -8 10 5 25 11 12 14 23 9 26 -6 3 -12 0 -15 -6 -2 -7 -7 -10 -11 -6
-4 3 5 25 19 48 l27 43 -25 -7 c-17 -4 -27 -1 -31 9 -3 8 -2 15 2 15 4 0 8 9
9 20 1 11 -4 20 -10 20 -7 0 -6 4 3 10 13 8 13 10 -2 10 -15 0 -16 4 -8 26 13
34 13 37 -4 31 -10 -4 -13 -1 -10 7 3 7 -1 16 -9 19 -8 3 -12 17 -11 36 2 28
0 30 -14 19 -13 -11 -15 -10 -9 5 10 26 -19 33 -43 12 -26 -23 -26 -15 -1 14
20 22 18 49 -3 64 -8 5 -6 11 4 18 12 8 9 10 -12 6 -17 -2 -29 1 -32 9 -3 8
-18 14 -33 14 -23 0 -25 2 -13 11 11 8 5 9 -23 4 -36 -6 -37 -5 -31 19 4 16 2
26 -5 26 -6 0 -11 7 -11 15 0 8 -6 16 -12 16 -7 1 -20 2 -28 3 -8 0 -14 9 -13
19 1 15 -4 18 -28 15 -25 -4 -28 -2 -23 15 5 16 3 17 -14 8 -17 -9 -19 -8 -15
9 7 26 -2 25 -22 -2z m355 -282 c0 -2 -8 -10 -17 -17 -16 -13 -17 -12 -4 4 13
16 21 21 21 13z"/>
<path d="M900 1750 c-13 -9 -13 -10 0 -10 8 0 22 5 30 10 13 9 13 10 0 10 -8
0 -22 -5 -30 -10z"/>
<path d="M945 1680 c-3 -5 -1 -10 4 -10 6 0 11 5 11 10 0 6 -2 10 -4 10 -3 0
-8 -4 -11 -10z"/>
<path d="M3020 1536 c0 -2 7 -7 16 -10 8 -3 12 -2 9 4 -6 10 -25 14 -25 6z"/>
<path d="M500 1509 c0 -5 5 -7 10 -4 6 3 10 8 10 11 0 2 -4 4 -10 4 -5 0 -10
-5 -10 -11z"/>
<path d="M2985 1510 c3 -5 12 -7 20 -3 21 7 19 13 -6 13 -11 0 -18 -4 -14 -10z"/>
<path d="M3052 1505 c-7 -8 -9 -15 -5 -16 4 0 -1 -4 -12 -9 -20 -8 -20 -8 -1
-16 13 -5 21 -3 24 4 2 7 15 9 34 5 22 -4 34 -2 42 9 6 8 18 18 26 21 8 4 -6
4 -32 2 -30 -4 -48 -2 -48 5 0 14 -13 12 -28 -5z"/>
<path d="M605 1470 c-3 -5 -2 -10 4 -10 5 0 13 5 16 10 3 6 2 10 -4 10 -5 0
-13 -4 -16 -10z"/>
<path d="M945 1460 c-3 -5 1 -10 9 -10 9 0 16 5 16 10 0 6 -4 10 -9 10 -6 0
-13 -4 -16 -10z"/>
<path d="M878 1443 c6 -2 18 -2 25 0 6 3 1 5 -13 5 -14 0 -19 -2 -12 -5z"/>
<path d="M545 1430 c-3 -5 -1 -10 4 -10 6 0 11 5 11 10 0 6 -2 10 -4 10 -3 0
-8 -4 -11 -10z"/>
<path d="M1288 1433 c7 -3 16 -2 19 1 4 3 -2 6 -13 5 -11 0 -14 -3 -6 -6z"/>
<path d="M670 1395 c-24 -17 -29 -25 -17 -25 10 0 30 11 45 25 15 14 22 25 16
25 -5 0 -25 -11 -44 -25z"/>
<path d="M4090 1412 c0 -18 19 -24 37 -13 10 6 13 11 6 11 -6 0 -18 3 -27 6
-9 3 -16 1 -16 -4z"/>
<path d="M4180 1402 c0 -10 22 -32 32 -32 4 0 8 5 8 10 0 6 -7 10 -16 10 -8 0
-12 5 -9 10 3 6 1 10 -4 10 -6 0 -11 -4 -11 -8z"/>
<path d="M814 1353 c-19 -20 -37 -34 -40 -30 -4 4 -2 13 5 21 9 11 8 15 -5 20
-9 4 -19 4 -22 1 -3 -3 1 -5 8 -5 9 0 8 -6 -5 -20 -16 -18 -16 -20 -2 -20 10
0 17 -4 17 -10 0 -23 30 -7 64 35 45 54 28 61 -20 8z"/>
<path d="M523 1336 c-18 -18 -33 -40 -33 -49 0 -12 12 -5 40 24 60 62 53 85
-7 25z"/>
<path d="M3415 1350 c17 -11 32 -15 33 -10 2 6 13 10 25 11 21 0 21 1 2 9 -11
5 -36 9 -55 9 l-35 1 30 -20z"/>
<path d="M4076 1355 c26 -20 51 -20 30 0 -8 8 -23 15 -32 15 -16 0 -16 -1 2
-15z"/>
<path d="M622 1348 c-20 -20 -14 -28 13 -16 13 6 22 15 19 19 -7 12 -18 11
-32 -3z"/>
<path d="M700 1340 c0 -5 7 -10 16 -10 8 0 12 5 9 10 -3 6 -10 10 -16 10 -5 0
-9 -4 -9 -10z"/>
<path d="M557 1305 c-23 -33 -7 -32 21 0 13 15 17 25 9 25 -6 0 -20 -12 -30
-25z"/>
<path d="M3363 1323 c9 -2 23 -2 30 0 6 3 -1 5 -18 5 -16 0 -22 -2 -12 -5z"/>
<path d="M4153 1323 c9 -2 25 -2 35 0 9 3 1 5 -18 5 -19 0 -27 -2 -17 -5z"/>
<path d="M805 1300 c-3 -5 -1 -10 4 -10 6 0 11 5 11 10 0 6 -2 10 -4 10 -3 0
-8 -4 -11 -10z"/>
<path d="M3414 1285 c33 -28 35 -29 56 -15 12 8 11 10 -7 10 -12 0 -28 7 -37
15 -8 8 -21 15 -28 15 -7 0 0 -11 16 -25z"/>
<path d="M780 1280 c0 -5 5 -10 11 -10 5 0 7 5 4 10 -3 6 -8 10 -11 10 -2 0
-4 -4 -4 -10z"/>
<path d="M462 1257 c-13 -15 1 -42 17 -33 6 4 11 13 11 19 0 7 -4 6 -11 -3 -9
-12 -10 -11 -6 8 6 25 4 27 -11 9z"/>
<path d="M4002 1258 c3 -7 13 -15 22 -16 12 -3 17 1 14 10 -3 7 -13 15 -22 16
-12 3 -17 -1 -14 -10z"/>
<path d="M3442 1230 c7 -11 16 -20 20 -20 5 0 8 9 8 20 0 13 -7 20 -20 20 -18
0 -19 -2 -8 -20z"/>
<path d="M381 1218 c-9 -15 -8 -18 7 -18 18 0 42 18 42 31 0 15 -38 5 -49 -13z"/>
<path d="M3940 1236 c0 -2 7 -6 15 -10 8 -3 15 -1 15 4 0 6 -7 10 -15 10 -8 0
-15 -2 -15 -4z"/>
<path d="M3158 1223 c7 -3 16 -2 19 1 4 3 -2 6 -13 5 -11 0 -14 -3 -6 -6z"/>
<path d="M3277 1224 c-11 -12 3 -24 28 -24 13 0 25 -5 27 -11 2 -6 15 -9 28
-7 l25 3 -22 23 c-22 21 -72 30 -86 16z"/>
<path d="M450 1200 c0 -5 7 -10 16 -10 8 0 12 5 9 10 -3 6 -10 10 -16 10 -5 0
-9 -4 -9 -10z"/>
<path d="M384 1174 c6 -7 14 -10 18 -8 3 2 8 -1 10 -8 3 -9 9 -8 21 4 24 23
22 26 -21 24 -29 0 -36 -4 -28 -12z"/>
<path d="M460 1170 c0 -5 5 -10 10 -10 6 0 10 5 10 10 0 6 -4 10 -10 10 -5 0
-10 -4 -10 -10z"/>
<path d="M4231 1164 c-12 -14 -11 -16 4 -12 10 1 20 9 23 16 5 17 -10 15 -27
-4z"/>
<path d="M687 1163 c-4 -3 -7 -13 -7 -22 1 -13 3 -13 11 2 11 19 8 33 -4 20z"/>
<path d="M3170 1160 c19 -13 30 -13 30 0 0 6 -10 10 -22 10 -19 0 -20 -2 -8
-10z"/>
<path d="M3880 1160 c0 -6 5 -8 11 -4 6 3 16 0 21 -7 8 -12 9 -11 5 1 -4 18
-37 27 -37 10z"/>
<path d="M3384 1145 c8 -8 17 -15 20 -15 3 0 6 7 6 15 0 9 -9 15 -21 15 -18 0
-19 -2 -5 -15z"/>
<path d="M413 1132 c-24 -9 -43 -22 -43 -30 0 -21 49 -6 80 24 28 28 22 29
-37 6z"/>
<path d="M3353 1135 c0 -8 4 -15 9 -15 4 0 8 4 8 9 0 6 -4 12 -8 15 -5 3 -9
-1 -9 -9z"/>
<path d="M3462 1128 c3 -7 13 -15 24 -17 16 -3 17 -1 5 13 -16 19 -34 21 -29
4z"/>
<path d="M650 1120 c-8 -5 -12 -11 -9 -14 2 -3 11 -1 19 4 8 5 12 11 9 14 -2
3 -11 1 -19 -4z"/>
<path d="M3295 1102 c11 -12 140 -92 146 -92 35 0 -27 51 -85 70 -26 8 -34 15
-26 20 8 5 4 8 -13 7 -14 -1 -24 -3 -22 -5z"/>
<path d="M545 1090 c-3 -5 1 -10 10 -10 9 0 13 5 10 10 -3 6 -8 10 -10 10 -2
0 -7 -4 -10 -10z"/>
<path d="M3795 1080 c3 -5 8 -10 11 -10 2 0 4 5 4 10 0 6 -5 10 -11 10 -5 0
-7 -4 -4 -10z"/>
<path d="M3680 1064 c0 -1 6 -7 14 -13 10 -9 15 -8 19 2 3 8 -3 13 -14 13 -11
0 -19 -1 -19 -2z"/>
<path d="M3766 1045 c-3 -8 -1 -15 4 -15 6 0 10 7 10 15 0 8 -2 15 -4 15 -2 0
-6 -7 -10 -15z"/>
<path d="M3822 1044 c10 -10 20 -15 24 -12 3 4 -5 12 -18 18 -22 12 -22 12 -6
-6z"/>
<path d="M3660 1041 c0 -6 4 -13 10 -16 6 -3 7 1 4 9 -7 18 -14 21 -14 7z"/>
<path d="M595 1010 c-3 -5 1 -10 10 -10 9 0 13 5 10 10 -3 6 -8 10 -10 10 -2
0 -7 -4 -10 -10z"/>
<path d="M3067 1003 c-3 -5 6 -9 19 -9 13 -1 21 2 18 7 -6 11 -31 12 -37 2z"/>
<path d="M3576 998 c3 -4 11 -5 19 -1 21 7 19 12 -4 10 -11 0 -18 -5 -15 -9z"/>
<path d="M3620 991 c0 -7 -4 -9 -10 -6 -12 8 -13 -5 -1 -23 6 -10 10 -8 14 9
4 13 4 25 2 28 -3 2 -5 -1 -5 -8z"/>
<path d="M3685 990 c3 -5 8 -10 11 -10 2 0 4 5 4 10 0 6 -5 10 -11 10 -5 0 -7
-4 -4 -10z"/>
<path d="M3810 990 c0 -5 5 -10 10 -10 6 0 10 5 10 10 0 6 -4 10 -10 10 -5 0
-10 -4 -10 -10z"/>
<path d="M3354 975 c3 -9 6 -19 6 -21 0 -2 9 -4 20 -4 28 0 25 15 -6 29 -23
10 -26 10 -20 -4z"/>
<path d="M3520 980 c0 -5 5 -10 10 -10 6 0 10 5 10 10 0 6 -4 10 -10 10 -5 0
-10 -4 -10 -10z"/>
<path d="M3577 934 c-4 -4 -7 -14 -7 -23 0 -11 3 -12 11 -4 6 6 10 16 7 23 -2
6 -7 8 -11 4z"/>
<path d="M3150 920 c0 -5 5 -10 10 -10 6 0 10 5 10 10 0 6 -4 10 -10 10 -5 0
-10 -4 -10 -10z"/>
<path d="M1640 880 c0 -5 5 -10 10 -10 6 0 10 5 10 10 0 6 -4 10 -10 10 -5 0
-10 -4 -10 -10z"/>
<path d="M3230 840 c0 -5 5 -10 11 -10 5 0 7 5 4 10 -3 6 -8 10 -11 10 -2 0
-4 -4 -4 -10z"/>
<path d="M3567 809 c4 -16 8 -17 14 -7 13 19 11 28 -5 28 -9 0 -12 -7 -9 -21z"/>
<path d="M3190 786 c0 -2 7 -9 15 -16 9 -7 15 -8 15 -2 0 5 -7 12 -15 16 -8 3
-15 4 -15 2z"/>
<path d="M1605 760 c-3 -6 1 -7 9 -4 18 7 21 14 7 14 -6 0 -13 -4 -16 -10z"/>
<path d="M3040 740 c0 -5 5 -10 10 -10 6 0 10 5 10 10 0 6 -4 10 -10 10 -5 0
-10 -4 -10 -10z"/>
<path d="M2805 700 c3 -5 14 -10 23 -10 15 0 15 2 2 10 -20 13 -33 13 -25 0z"/>
<path d="M3284 663 c0 -21 3 -30 10 -23 6 6 14 3 22 -8 12 -15 13 -15 14 -1 0
9 -10 27 -23 41 l-23 25 0 -34z"/>
<path d="M2700 646 c0 -24 15 -26 28 -5 11 16 9 19 -8 19 -11 0 -20 -6 -20
-14z"/>
<path d="M2758 643 c7 -3 16 -2 19 1 4 3 -2 6 -13 5 -11 0 -14 -3 -6 -6z"/>
<path d="M3065 610 c9 -16 20 -30 26 -30 8 0 7 5 -1 15 -7 8 -9 15 -5 15 4 0
2 7 -5 15 -22 26 -31 16 -15 -15z"/>
<path d="M2965 620 c3 -5 8 -10 11 -10 2 0 4 5 4 10 0 6 -5 10 -11 10 -5 0 -7
-4 -4 -10z"/>
<path d="M3285 610 c-3 -5 -1 -10 4 -10 6 0 11 5 11 10 0 6 -2 10 -4 10 -3 0
-8 -4 -11 -10z"/>
<path d="M3405 600 c3 -5 8 -10 11 -10 2 0 4 5 4 10 0 6 -5 10 -11 10 -5 0 -7
-4 -4 -10z"/>
<path d="M3347 589 c7 -7 15 -10 18 -7 3 3 -2 9 -12 12 -14 6 -15 5 -6 -5z"/>
<path d="M2716 555 c4 -8 10 -15 15 -15 4 0 6 7 3 15 -4 8 -10 15 -15 15 -4 0
-6 -7 -3 -15z"/>
<path d="M2985 520 c3 -5 10 -10 16 -10 5 0 9 5 9 10 0 6 -7 10 -16 10 -8 0
-12 -4 -9 -10z"/>
<path d="M3251 504 c0 -11 3 -14 6 -6 3 7 2 16 -1 19 -3 4 -6 -2 -5 -13z"/>
<path d="M3010 490 c0 -5 5 -10 11 -10 5 0 7 5 4 10 -3 6 -8 10 -11 10 -2 0
-4 -4 -4 -10z"/>
<path d="M2820 465 c0 -8 9 -29 20 -47 23 -38 26 -23 6 27 -16 37 -26 45 -26
20z"/>
<path d="M3090 470 c0 -5 5 -10 11 -10 5 0 7 5 4 10 -3 6 -8 10 -11 10 -2 0
-4 -4 -4 -10z"/>
<path d="M2710 462 c0 -10 22 -32 32 -32 5 0 3 9 -4 20 -13 20 -28 27 -28 12z"/>
<path d="M2620 421 c0 -5 5 -13 10 -16 6 -3 10 -2 10 4 0 5 -4 13 -10 16 -5 3
-10 2 -10 -4z"/>
<path d="M3065 330 c3 -5 11 -10 16 -10 6 0 7 5 4 10 -3 6 -11 10 -16 10 -6 0
-7 -4 -4 -10z"/>
<path d="M3000 301 c0 -6 4 -13 10 -16 6 -3 7 1 4 9 -7 18 -14 21 -14 7z"/>
<path d="M3023 228 c1 -32 5 -44 14 -41 9 4 11 0 7 -11 -3 -9 -2 -16 4 -16 13
0 5 56 -13 90 -12 23 -13 22 -12 -22z"/>
</g>
</svg>
